<svg width="22" height="30" viewBox="0 0 22 30" fill="none" xmlns="http://www.w3.org/2000/svg">
<path d="M11 7.00004V11L16.3333 5.66671L11 0.333374V4.33337C5.10668 4.33337 0.333344 9.10671 0.333344 15C0.333344 17.0934 0.946677 19.04 1.98668 20.68L3.93334 18.7334C3.33334 17.6267 3.00001 16.3467 3.00001 15C3.00001 10.5867 6.58668 7.00004 11 7.00004ZM20.0133 9.32004L18.0667 11.2667C18.6533 12.3867 19 13.6534 19 15C19 19.4134 15.4133 23 11 23V19L5.66668 24.3334L11 29.6667V25.6667C16.8933 25.6667 21.6667 20.8934 21.6667 15C21.6667 12.9067 21.0533 10.96 20.0133 9.32004Z" fill="white"/>
</svg>
